<mxfile host="app.diagrams.net" modified="2023-08-23T23:40:31.995Z" agent="Mozilla/5.0 (Windows NT 10.0; Win64; x64) AppleWebKit/537.36 (KHTML, like Gecko) Chrome/116.0.0.0 Safari/537.36" version="21.6.9" etag="UnrcgTqnKRNTRkjsFOEC" type="github">
  <diagram name="PÃ¡gina-1" id="_r75S0dgfs3CPF3vdWEm">
    <mxGraphModel>
      <root>
        <mxCell id="0" />
        <mxCell id="1" parent="0" />
      </root>
    </mxGraphModel>
  </diagram>
</mxfile>
